# xmcd CD database file
#
# Track frame offsets:
#	150
#	17660
#	26830
#	41340
#	53660
#	63250
#	79035
#	90200
#	102992
#	112282
#
# Disc length: 1670 seconds
#
# Revision: 2
# Processed by: cddbd v1.5.1PL2 Copyright (c) Steve Scherf et al.
# Submitted via: Feurio! 1.68 - http://www.feurio.com
#
DISCID=7306840a
DTITLE=Tennessee Ernie Ford - Best of the Best - Gospel
DYEAR=2000
DGENRE=Gospel
TTITLE0=What a Friend We Have in Jesus
TTITLE1=How Great Thou Art
TTITLE2=Take My Hand, Precious Lord
TTITLE3=Precious Memories
TTITLE4=When The Roll is Called Up Yonder
TTITLE5=Nearer, My God, To Thee
TTITLE6=Whispering Hope
TTITLE7=In The Garden
TTITLE8=Shall We Gather At The River
TTITLE9=Sweet Hour of Prayer
EXTD=
EXTT0=
EXTT1=
EXTT2=
EXTT3=
EXTT4=
EXTT5=
EXTT6=
EXTT7=
EXTT8=
EXTT9=
PLAYORDER=
